# xmcd
#
# Track frame offsets:
#	150
#	11692
#	25857
#	35567
#	46889
#	61921
#	75908
#
# Disc length: 1239 seconds
#
# Revision: 1
# Processed by: cddbd v1.5.1PL2 Copyright (c) Steve Scherf et al.
# Submitted via: audiograbber 1.83.01
#
DISCID=4704d507
DTITLE=Mojave River - Mojave River
DYEAR=2006
DGENRE=Country
TTITLE0=Definate Maybe
TTITLE1=Loving Me More
TTITLE2=I'd Rather Be Judged
TTITLE3=Should Have Said I Love You
TTITLE4=Have To Crawl
TTITLE5=Hard Work Havin Fun
TTITLE6=Dancing On Daddy's Feet
EXTD=Vocals - Drums: Don Henderson\nKeyboards: Mark Kinney\nGuitars - BG Vocals
EXTD=: Jon Rockwood\nBass - BG Vocals: Steven Ford\nBG Vocals - Drums: Curtis F
EXTD=eatherston
EXTT0=
EXTT1=
EXTT2=
EXTT3=
EXTT4=
EXTT5=
EXTT6=
PLAYORDER=
